<?xml version="1.0" standalone="no"?>
<!DOCTYPE svg PUBLIC "-//W3C//DTD SVG 20010904//EN"
 "http://www.w3.org/TR/2001/REC-SVG-20010904/DTD/svg10.dtd">
<svg version="1.0" xmlns="http://www.w3.org/2000/svg"
 width="578.000000pt" height="174.000000pt" viewBox="0 0 578.000000 174.000000"
 preserveAspectRatio="xMidYMid meet">

<g transform="translate(0.000000,174.000000) scale(0.100000,-0.100000)"
fill="#000000" stroke="none">
<path d="M5178 1706 c-66 -27 -136 -77 -193 -137 -40 -42 -40 -41 24 9 149
119 291 106 360 -31 l24 -48 -23 -24 -23 -24 24 -5 c31 -8 143 -24 146 -22 1
1 8 47 16 103 13 98 13 102 -4 92 -15 -8 -26 -2 -56 31 -20 23 -54 50 -74 61
-54 27 -148 25 -221 -5z"/>
<path d="M5123 1626 c-23 -8 -57 -23 -77 -35 -37 -23 -130 -121 -122 -128 3
-3 36 2 75 11 58 13 83 26 133 66 34 28 77 56 95 62 39 14 42 23 11 32 -34 9
-68 6 -115 -8z"/>
<path d="M5607 1608 c-15 -54 -9 -65 34 -72 23 -4 43 -5 44 -4 1 2 5 22 8 46
5 38 3 42 -16 42 -12 0 -32 3 -43 6 -16 4 -23 0 -27 -18z"/>
<path d="M1370 1513 c-8 -4 -35 -15 -60 -26 l-45 -20 30 -6 30 -6 3 -273 2
-273 -32 -14 c-31 -13 -27 -14 72 -14 99 0 103 1 73 14 l-33 14 0 306 c0 317
0 313 -40 298z"/>
<path d="M3120 1492 c-48 -23 -52 -26 -30 -30 14 -2 28 -9 32 -16 10 -15 10
-518 0 -533 -4 -7 -19 -16 -32 -22 -19 -7 1 -10 80 -10 97 0 103 1 74 13 -18
8 -34 24 -37 37 -4 13 -7 151 -7 307 0 219 -3 282 -12 281 -7 0 -38 -12 -68
-27z"/>
<path d="M5556 1470 c-3 -18 -6 -44 -6 -58 0 -24 -2 -24 -50 -18 -28 4 -56 9
-64 12 -15 6 -26 -34 -26 -91 0 -31 2 -34 43 -40 23 -3 50 -9 59 -11 14 -4 18
5 24 57 l7 61 62 -7 63 -6 7 56 c3 31 5 58 3 60 -2 2 -28 6 -59 10 l-56 7 -7
-32z"/>
<path d="M41 1477 c61 -28 59 -16 59 -297 0 -279 1 -272 -57 -290 -19 -6 7 -8
82 -8 76 0 100 3 77 8 -19 4 -39 13 -45 19 -8 8 -13 85 -15 244 -2 127 1 228
5 223 4 -4 58 -116 119 -249 60 -132 115 -242 120 -244 6 -2 61 109 124 247
62 137 115 250 116 250 2 0 4 -100 4 -223 0 -246 -2 -253 -60 -267 -24 -5 9
-8 100 -8 89 0 125 3 107 8 -58 18 -57 10 -57 295 0 282 -2 273 55 293 25 9
15 11 -58 9 l-88 -2 -106 -232 c-58 -128 -109 -231 -112 -228 -3 2 -53 107
-111 234 l-105 230 -90 0 c-77 -1 -86 -2 -64 -12z"/>
<path d="M5687 1353 c-5 -45 -3 -49 44 -56 36 -5 37 -5 43 35 4 22 5 42 4 43
-2 2 -22 6 -44 10 l-42 6 -5 -38z"/>
<path d="M5570 1326 c0 -13 -3 -31 -6 -39 -4 -12 5 -18 38 -24 38 -8 43 -12
43 -36 -1 -21 5 -29 23 -34 27 -7 29 -5 34 27 2 21 -1 26 -26 28 -28 3 -28 5
-23 47 6 38 4 43 -16 49 -47 13 -67 7 -67 -18z"/>
<path d="M5330 1321 c-69 -37 -95 -135 -55 -211 46 -89 -25 -270 -168 -426
-88 -97 -181 -136 -257 -109 -37 13 -41 13 -30 0 6 -7 31 -23 54 -34 108 -53
259 -1 390 133 54 56 150 195 180 264 17 37 29 48 73 67 60 27 93 71 93 125 0
36 -33 120 -47 120 -19 -1 -32 -18 -42 -57 -13 -48 -24 -52 -77 -27 -50 24
-64 50 -64 116 0 32 -3 58 -8 58 -4 0 -23 -8 -42 -19z"/>
<path d="M924 1280 c-60 -39 -71 -125 -16 -118 23 3 27 8 30 40 6 69 77 98
124 50 9 -9 19 -36 23 -58 l6 -41 -81 -33 c-45 -18 -97 -47 -116 -65 -29 -28
-34 -39 -34 -79 0 -40 5 -53 30 -78 27 -26 36 -30 70 -25 22 3 59 19 82 37
l43 31 3 -26 c4 -29 34 -49 62 -40 30 10 80 55 80 72 0 14 -3 14 -20 -2 -10
-9 -26 -15 -35 -12 -12 5 -15 30 -15 146 0 153 -8 184 -51 207 -43 22 -147 18
-185 -6z m164 -237 l-3 -77 -40 -23 c-51 -29 -60 -29 -90 2 -34 33 -33 74 3
108 24 23 105 66 125 67 4 0 7 -35 5 -77z"/>
<path d="M1593 1280 c-39 -23 -55 -52 -51 -88 2 -23 8 -27 33 -27 28 0 30 3
36 43 7 53 20 66 65 66 49 0 76 -33 72 -86 -3 -38 -5 -40 -71 -68 -93 -39
-134 -72 -148 -119 -9 -32 -8 -44 6 -74 31 -66 106 -73 176 -17 l37 30 10 -29
c6 -16 19 -32 31 -36 24 -7 74 17 95 47 22 31 20 45 -2 25 -10 -10 -26 -17
-35 -17 -15 0 -17 15 -17 133 0 158 -10 201 -50 222 -43 22 -147 20 -187 -5z
m157 -241 l0 -80 -46 -21 c-46 -20 -47 -20 -73 -1 -29 22 -39 70 -21 103 9 16
119 80 138 80 1 0 2 -36 2 -81z"/>
<path d="M1968 1278 c-27 -11 -48 -24 -48 -29 0 -5 7 -6 15 -3 8 4 22 1 30 -6
12 -10 15 -42 15 -164 0 -83 -4 -156 -8 -163 -4 -7 -19 -16 -32 -22 -19 -7 1
-10 80 -9 58 0 94 3 80 7 -40 11 -50 45 -50 177 0 112 2 122 23 141 55 50 105
56 136 17 19 -24 21 -40 21 -163 0 -75 -4 -142 -9 -149 -4 -7 -21 -17 -37 -22
-21 -6 2 -8 81 -9 101 0 107 1 79 13 -40 18 -44 34 -44 181 l0 121 42 27 c50
32 90 35 118 7 18 -18 20 -33 20 -162 0 -79 -4 -149 -9 -156 -4 -7 -21 -17
-37 -22 -21 -6 2 -8 81 -9 101 0 107 1 79 13 -40 18 -44 34 -44 194 0 176 -18
212 -105 212 -43 0 -69 -12 -112 -52 l-31 -30 -16 31 c-20 38 -44 51 -93 51
-40 0 -67 -14 -115 -58 l-28 -26 0 42 c0 49 -9 51 -82 20z"/>
<path d="M2724 1280 c-60 -39 -71 -125 -16 -118 23 3 27 8 30 40 6 69 77 98
124 50 9 -9 19 -36 23 -58 l6 -41 -81 -33 c-45 -18 -97 -47 -116 -65 -29 -28
-34 -39 -34 -79 0 -40 5 -53 30 -78 27 -26 36 -30 70 -25 22 3 59 19 82 37
l43 31 3 -26 c4 -29 34 -49 62 -40 30 10 80 55 80 72 0 14 -3 14 -20 -2 -10
-9 -26 -15 -35 -12 -12 5 -15 30 -15 146 0 153 -8 184 -51 207 -43 22 -147 18
-185 -6z m164 -237 l-3 -77 -40 -23 c-51 -29 -60 -29 -90 2 -34 33 -33 74 3
108 24 23 105 66 125 67 4 0 7 -35 5 -77z"/>
<path d="M3601 1267 c29 -19 137 -159 139 -178 0 -12 -128 -175 -151 -191 -23
-17 -22 -17 46 -17 66 -1 68 0 47 15 -12 8 -22 19 -22 23 0 5 22 39 49 76 l49
67 32 -43 c17 -24 39 -57 47 -73 15 -28 14 -31 -7 -48 -22 -18 -20 -18 76 -18
93 1 97 2 72 16 -27 14 -168 203 -168 224 0 20 91 131 124 151 l31 19 -75 0
c-70 0 -73 -1 -52 -16 25 -17 21 -30 -26 -93 l-25 -33 -34 53 -34 54 22 18
c21 16 18 17 -76 17 l-98 0 34 -23z"/>
<path d="M4043 1274 c22 -12 48 -56 118 -199 l89 -184 -24 -54 c-13 -30 -30
-58 -37 -63 -8 -5 -41 -9 -74 -9 l-60 0 -3 -32 c-7 -66 82 -69 146 -5 30 31
54 81 135 284 67 167 105 251 120 262 21 14 18 15 -48 15 -49 0 -64 -3 -49 -9
12 -5 25 -13 28 -19 4 -6 -17 -70 -45 -143 l-53 -133 -58 120 c-32 66 -57 129
-56 140 2 11 14 25 28 32 22 11 11 13 -80 12 -100 0 -104 -1 -77 -15z"/>
<path d="M4510 1233 l0 -58 20 43 19 42 101 0 100 0 -87 -117 c-47 -65 -108
-147 -135 -182 -26 -35 -48 -68 -48 -72 0 -5 80 -9 179 -9 l178 0 7 46 c8 63
8 74 -4 74 -5 0 -10 -11 -10 -25 0 -14 -9 -34 -20 -45 -17 -17 -33 -20 -120
-20 -55 0 -100 3 -100 6 0 3 59 84 130 180 72 96 130 179 130 184 0 6 -65 10
-170 10 l-170 0 0 -57z"/>
<path d="M3366 964 c-32 -32 -10 -94 34 -94 41 0 68 68 38 98 -17 17 -54 15
-72 -4z"/>
<path d="M4758 773 c-35 -5 -36 -26 -7 -88 37 -79 102 -109 182 -85 38 11 40
14 22 24 -33 19 -82 75 -100 117 -19 41 -25 43 -97 32z"/>
<path d="M490 555 l0 -25 2010 0 2010 0 0 25 0 25 -2010 0 -2010 0 0 -25z"/>
<path d="M2454 325 c0 -99 2 -138 3 -87 2 51 2 132 0 180 -1 48 -3 6 -3 -93z"/>
<path d="M3410 325 c0 -110 4 -175 10 -175 6 0 10 65 10 175 0 110 -4 175 -10
175 -6 0 -10 -65 -10 -175z"/>
<path d="M746 343 c8 -27 24 -81 36 -120 11 -40 25 -73 29 -73 4 0 23 46 41
102 l34 102 29 -102 c16 -56 32 -102 36 -102 10 0 83 230 75 237 -7 7 -11 -4
-45 -119 l-28 -93 -17 60 c-10 33 -22 78 -28 100 -6 22 -15 44 -19 49 -4 5
-23 -39 -41 -98 -36 -119 -33 -120 -73 17 -15 48 -30 87 -35 87 -5 0 -2 -21 6
-47z"/>
<path d="M1060 383 c0 -22 69 -228 76 -230 5 -2 22 40 38 92 16 52 33 95 37
95 5 0 9 -5 9 -12 0 -25 51 -178 59 -178 5 0 14 19 20 43 6 23 22 77 35 120
14 42 21 77 16 77 -5 0 -11 -8 -14 -17 -3 -10 -17 -58 -32 -108 l-27 -90 -30
108 c-17 59 -33 107 -36 107 -3 0 -21 -49 -40 -108 l-34 -107 -30 108 c-17 59
-34 107 -39 107 -4 0 -8 -3 -8 -7z"/>
<path d="M1396 343 c8 -27 24 -81 36 -120 11 -40 25 -73 29 -73 4 0 23 46 41
102 l34 102 29 -102 c16 -56 32 -102 36 -102 10 0 83 230 75 237 -7 7 -11 -4
-45 -119 l-28 -93 -17 60 c-10 33 -22 78 -28 100 -6 22 -15 44 -19 49 -4 5
-23 -39 -41 -98 -36 -119 -33 -120 -73 17 -15 48 -30 87 -35 87 -5 0 -2 -21 6
-47z"/>
<path d="M1823 270 l1 -125 5 93 c6 87 8 96 34 118 34 29 48 30 78 5 21 -17
24 -30 29 -118 l6 -98 4 93 c5 88 7 95 33 118 35 30 58 30 83 3 15 -16 20 -42
25 -117 l5 -97 2 103 c2 90 0 104 -18 122 -26 26 -77 26 -106 -1 l-22 -21 -21
21 c-27 27 -71 27 -104 1 l-26 -20 -4 22 c-2 13 -4 -33 -4 -102z"/>
<path d="M2238 379 c-29 -17 -20 -29 10 -13 15 7 34 14 43 14 25 0 57 -32 61
-59 3 -23 -2 -26 -61 -36 -69 -13 -91 -31 -91 -75 0 -56 73 -80 123 -40 32 25
35 25 40 -2 2 -13 5 23 6 80 1 90 -1 104 -19 122 -22 22 -82 27 -112 9z m116
-107 c13 -21 -16 -82 -46 -98 -55 -28 -107 8 -88 61 10 27 121 58 134 37z"/>
<path d="M2574 374 c-19 -15 -19 -16 1 -9 70 23 104 11 108 -39 2 -28 -1 -29
-57 -41 -62 -13 -96 -40 -96 -76 0 -30 36 -59 73 -59 33 0 77 23 77 41 0 6
-12 1 -26 -10 -15 -12 -34 -21 -43 -21 -28 0 -61 30 -61 55 0 31 31 51 92 59
l47 7 -1 -61 c0 -33 2 -63 6 -67 3 -3 6 41 6 99 0 89 -3 107 -18 121 -23 21
-82 22 -108 1z"/>
<path d="M2780 270 c0 -66 4 -120 9 -120 5 0 11 43 13 96 3 86 5 98 27 115 29
24 52 24 81 1 19 -15 23 -32 30 -117 l7 -100 2 88 c1 84 3 90 30 118 34 34 50
36 82 11 20 -17 23 -31 29 -118 l7 -99 1 93 c2 122 -12 152 -74 152 -21 0 -40
-9 -55 -24 l-23 -24 -19 24 c-24 31 -72 32 -104 2 l-23 -21 0 21 c0 12 -4 22
-10 22 -6 0 -10 -47 -10 -120z"/>
<path d="M3208 379 c-29 -17 -20 -29 10 -13 15 7 35 14 45 14 25 0 57 -36 57
-64 0 -21 -6 -24 -52 -30 -73 -10 -98 -28 -98 -71 0 -42 22 -65 63 -65 33 0
77 23 77 41 0 5 -13 0 -29 -12 -36 -26 -77 -20 -92 15 -18 38 3 63 61 75 72
15 72 15 69 -26 -3 -62 0 -93 11 -93 14 0 13 176 -1 203 -7 12 -17 25 -23 29
-16 11 -78 9 -98 -3z"/>
<path d="M3629 328 l39 -62 -39 -58 c-22 -32 -36 -58 -30 -58 5 0 23 22 41 50
18 27 36 47 41 44 5 -3 20 -25 35 -50 14 -24 30 -44 35 -44 14 0 11 7 -27 64
l-36 54 41 61 c23 34 37 61 31 61 -5 0 -26 -25 -46 -55 l-37 -55 -34 55 c-19
30 -39 55 -44 55 -5 0 8 -28 30 -62z"/>
<path d="M3790 386 c0 -2 20 -57 45 -121 l45 -117 -22 -41 c-15 -27 -32 -43
-46 -45 -26 -4 -30 -22 -4 -22 35 0 52 27 113 175 33 83 63 156 66 163 3 6 1
12 -4 12 -5 0 -27 -44 -48 -97 -21 -54 -41 -102 -45 -106 -4 -4 -24 39 -45 97
-20 59 -41 106 -46 106 -5 0 -9 -2 -9 -4z"/>
<path d="M4030 380 c0 -5 31 -10 69 -12 l70 -3 -60 -80 c-34 -44 -70 -92 -81
-107 l-19 -28 95 0 c57 0 96 4 96 10 0 6 -32 10 -75 10 -41 0 -75 2 -75 5 0 3
34 51 75 105 41 54 75 102 75 105 0 3 -38 5 -85 5 -47 0 -85 -4 -85 -10z"/>
<path d="M1710 165 c0 -9 5 -15 11 -13 6 2 11 8 11 13 0 5 -5 11 -11 13 -6 2
-11 -4 -11 -13z"/>
<path d="M3510 165 c0 -8 7 -15 15 -15 8 0 15 7 15 15 0 8 -7 15 -15 15 -8 0
-15 -7 -15 -15z"/>
</g>
</svg>
